<?xml version="1.0" encoding="iso-8859-1"?>
<!-- Uploaded to: SVG Repo, www.svgrepo.com, Generator: SVG Repo Mixer Tools -->
<!DOCTYPE svg PUBLIC "-//W3C//DTD SVG 1.1//EN" "http://www.w3.org/Graphics/SVG/1.1/DTD/svg11.dtd">
<svg fill="#627675" version="1.1" id="Capa_1" xmlns="http://www.w3.org/2000/svg" xmlns:xlink="http://www.w3.org/1999/xlink" 
	 width="800px" height="800px" viewBox="0 0 35.894 35.894"
	 xml:space="preserve">
<g>
	<path d="M29.077,15.451c-0.169-0.395-1.015-3.591-1.616-3.986c-0.603-0.395-4.62-2.707-5.358-3.139
		c-0.344-0.202-1.442-0.674-2.425-1.391c-1.127-0.822-2.144-1.888-2.425-1.941c-0.526-0.099-1.664,0.07-2.157-0.071
		s-0.799-0.932-0.86-1.071c-0.062-0.14,0.084-0.606,0-0.959c0.917-0.042,0.865-0.456,0.79-1.368
		c-0.028-0.338-0.254-0.987-1.156-0.719c-0.163-0.108-0.353-0.522-1.269-0.762c-0.916-0.239-2.256,0.55-2.481,1.114
		c-0.225,0.564-0.084,1.551-0.084,1.551s0.147,0.236,0.254,0.409c0.107,0.173-0.058,0.903-0.071,1.1s0.522,0.071,0.522,0.071
		s0.105,0.098,0.24,0.423c0.119,0.287,0.262,0.805,0.38,0.818c0.254,0.028,1.176-0.686,1.176-0.686s0.558,0.009,0.572,0.305
		c0.014,0.296-0.296,0.381-0.296,0.381s-0.764,0.194-1.551,0.395s-4.632,6.012-4.46,6.613c0.338,1.184,4.644,2.369,4.644,2.369
		l0.902,0.075c0,0-0.7,2.885-1.241,5.113c-0.307,1.267-0.607,4.195-1.372,6.655c-0.582,1.871-1.688,3.486-1.786,3.797
		c-0.228,0.72,0.489,0.282,0.489,0.282S7.745,32.28,7.479,32.84c-0.267,0.561,1.879,0.583,1.879,0.583s-0.188,0.545,0.075,0.583
		c0.263,0.038,0.714-0.264,0.696,0.038c-0.019,0.301-1.216,0.672-1.507,0.833c-0.29,0.16-0.091,0.54-0.091,0.54
		s0.113,0.396,0.621,0.451c0.507,0.057,1.805,0,1.805,0l1.673-1.562l0.336,0.64c0,0,0.301,0.263,0.376,0
		c0.075-0.264,0.188-0.865,0.188-0.865l0.658-0.338c0,0,2.463-0.075,2.801-0.319s2.218-0.433,2.462-0.827
		c0.244-0.394,0.93-1.683,0.93-1.683l0.331,0.386c0,0,0.826,0.188,0.958-0.281c0.131-0.471,0.094-1.034,0.094-1.034
		s0.828,0.226,1.053-0.075c0.226-0.301-0.019-0.808-0.019-0.808s0.318,0.206,0.545,0.019c0.226-0.188,0.658-0.883,0.658-0.883
		l0.263-0.414c0,0,0.47,0.318,0.602,0c0.131-0.32,0.434-1.448,0.434-1.448s1.354-0.301,1.484-0.639s-0.057-1.071-0.057-1.071
		l0.301-0.113l-0.019-1.335c0,0,0.695,0.038,0.79-0.301c0.094-0.339,0-1.053,0-1.053s0.657,0,0.525-0.357
		c-0.132-0.356-0.245-2.951-0.245-2.951s1.054-0.339,0.865-0.846c-0.188-0.507-0.64-1.711-0.64-1.711S29.246,15.845,29.077,15.451z
		 M11.688,13.552c-0.771,0.019-2.97-1.542-2.97-1.542s1.541-1.861,1.729-2.406c0.357,0.338,0.407,0.959,0.753,1.363
		c0.243,0.284,0.987,0.129,1.089,0.104V11.07c0.02-0.004,0.017-0.003,0,0.001c0.004,0.005,0.432,0.586,0.413,1.578
		C12.571,12.837,12.459,13.533,11.688,13.552z M18.418,14.868c-0.039-0.331-0.324-1.539-0.472-2.82
		c-0.235-2.025-0.355-4.324-0.355-4.324s2.792,1.747,3.688,2.136c0.897,0.389,4.358,1.888,4.358,1.888S20.261,13.721,18.418,14.868z
		"/>
</g>
</svg>