<?xml version="1.0" encoding="UTF-8"?><svg id="a" xmlns="http://www.w3.org/2000/svg" viewBox="0 0 283.46 170.08"><defs>
<style>.b{font-family:Judson-Bold, Judson;font-size:77.91px;font-weight:700;}.b,.c{fill:#fff;}.c{stroke-width:0px;}</style>
</defs><text class="b" transform="translate(11 76.15)"><tspan x="0" y="0">leahs</tspan><tspan x="0" y="59.66">Healing</tspan></text><path class="c" d="M217.79,36.21c-1.15-.09-2.31,0-3.39.4-3.2,1.18-8.58,5.33-4.73,19.93,5.29,20.02,14.73,13.72,14.73,13.72,0,0,4.13-3.05.47-11.26-.71-1.59-1.01-3.34-.78-5.07.2-1.55.62-3.4,1.45-4.82,1.7-2.91,3.13-12.06-7.75-12.91Z"/><path class="c" d="M231.53,31.14c-.79-1.34-2.42-2.24-4.11-1.88-3.31.71-3.29,5.73-3.22,5.86,0,0,.2,5.21,5.37,1.15,2.76-2.17,2.65-3.95,1.95-5.14Z"/><path class="c" d="M222.07,28.24c-.88-.29-2.04.01-2.78.94-1.46,1.81.32,4.19.4,4.22,0,0,1.94,2.39,3.18-1.85.66-2.26-.02-3.06-.8-3.31Z"/><path class="c" d="M215.96,29.02c-.8-.11-1.76.34-2.26,1.25-.97,1.8.94,3.57,1.02,3.58,0,0,2.06,1.76,2.46-2.1.21-2.06-.5-2.64-1.22-2.74Z"/><path class="c" d="M210.47,31.88c-.64.17-1.23.8-1.32,1.66-.18,1.67,1.83,2.42,1.89,2.41,0,0,2.11.69,1.21-2.36-.48-1.63-1.21-1.85-1.78-1.7Z"/><path class="c" d="M206.61,35.96c-.4.36-.59,1.04-.34,1.69.49,1.27,2.22,1.07,2.26,1.04,0,0,1.78-.28,0-2.16-.95-1-1.56-.89-1.92-.57Z"/><path class="c" d="M244.64,48.81c1.15-.09,2.31,0,3.39.4,3.2,1.18,8.58,5.33,4.73,19.93-5.29,20.02-14.73,13.72-14.73,13.72,0,0-4.13-3.05-.47-11.26.71-1.59,1.01-3.34.78-5.07-.2-1.55-.62-3.4-1.45-4.82-1.7-2.91-3.13-12.06,7.75-12.91Z"/><path class="c" d="M230.91,43.74c.79-1.34,2.42-2.24,4.11-1.88,3.31.71,3.29,5.73,3.22,5.86,0,0-.2,5.21-5.37,1.15-2.76-2.17-2.65-3.95-1.95-5.14Z"/><path class="c" d="M240.37,40.83c.88-.29,2.04.01,2.78.94,1.46,1.81-.32,4.19-.4,4.22,0,0-1.94,2.39-3.18-1.85-.66-2.26.02-3.06.8-3.31Z"/><path class="c" d="M246.48,41.62c.8-.11,1.76.34,2.26,1.25.97,1.8-.94,3.57-1.02,3.58,0,0-2.06,1.76-2.46-2.1-.21-2.06.5-2.64,1.22-2.74Z"/><path class="c" d="M251.97,44.48c.64.17,1.23.8,1.32,1.66.18,1.67-1.83,2.42-1.89,2.41,0,0-2.11.69-1.21-2.36.48-1.63,1.21-1.85,1.78-1.7Z"/><path class="c" d="M255.83,48.55c.4.36.59,1.04.34,1.69-.49,1.27-2.22,1.07-2.26,1.04,0,0-1.78-.28,0-2.16.95-1,1.56-.89,1.92-.57Z"/></svg>