<?xml version="1.0" encoding="iso-8859-1"?>
<!-- Uploaded to: SVG Repo, www.svgrepo.com, Generator: SVG Repo Mixer Tools -->
<!DOCTYPE svg PUBLIC "-//W3C//DTD SVG 1.1//EN" "http://www.w3.org/Graphics/SVG/1.1/DTD/svg11.dtd">
<svg fill="#627675" version="1.1" id="Capa_1" xmlns="http://www.w3.org/2000/svg" xmlns:xlink="http://www.w3.org/1999/xlink" 
	 width="800px" height="800px" viewBox="0 0 32.031 32.031"
	 xml:space="preserve">
<g>
	<path d="M23.625,18.764c-0.177,0.277-0.384,0.531-0.604,0.762c-2.053,3.024-8.75,8.344-9.885,10.131
		c-1.479,2.332-4.521,3.074-6.76,1.653c-2.239-1.419-2.911-4.461-1.432-6.792c1.937-3.06,7.063-3.254,8.063-5.459
		c0-0.002,0-0.004,0-0.005c0-0.203,0.126-0.42,0.007-0.592c-1.814-2.641-1.721-6.973-0.319-9.183
		c1.72-2.713,4.932-1.208,8.178,0.851C24.115,12.186,25.346,16.051,23.625,18.764z M16.045,6.201
		c1.422,0.902,3.396,0.343,4.404-1.251c1.011-1.594,0.677-3.617-0.746-4.521c-1.424-0.899-3.394-0.339-4.405,1.255
		C14.288,3.277,14.621,5.301,16.045,6.201z M20.637,5.579c-0.519,0.818-0.377,1.836,0.312,2.274c0.689,0.438,1.671,0.13,2.189-0.688
		c0.519-0.817,0.377-1.835-0.312-2.273C22.137,4.454,21.156,4.761,20.637,5.579z M23.149,8.06c-0.444,0.701-0.312,1.581,0.294,1.966
		c0.606,0.384,1.458,0.127,1.901-0.574c0.444-0.701,0.313-1.581-0.293-1.965C24.446,7.102,23.592,7.359,23.149,8.06z M26.838,12.158
		c0.465-0.735,0.393-1.616-0.164-1.968c-0.558-0.353-1.386-0.042-1.851,0.692s-0.394,1.616,0.164,1.969
		C25.545,13.203,26.374,12.893,26.838,12.158z M27.528,13.204c-0.412-0.261-1.025-0.032-1.371,0.513s-0.293,1.198,0.119,1.459
		c0.412,0.261,1.025,0.031,1.371-0.514C27.992,14.118,27.94,13.465,27.528,13.204z"/>
</g>
</svg>