<?xml version="1.0" encoding="utf-8"?>
<!-- Generator: Adobe Illustrator 27.8.1, SVG Export Plug-In . SVG Version: 6.00 Build 0)  -->
<svg version="1.1" id="Layer_1" xmlns="http://www.w3.org/2000/svg" xmlns:xlink="http://www.w3.org/1999/xlink" x="0px" y="0px"
	 viewBox="0 0 595.3 841.9" style="enable-background:new 0 0 595.3 841.9;" xml:space="preserve">
<style type="text/css">
	.st0{fill:#0A7F77;}
	.st1{fill:#FFFFFF;}
</style>
<g>
	<g>
		<g>
			<path class="st1" d="M156.7,411.3v-1.8c3.1,0,4.8-0.6,5.3-1.7v-44.1c-3-0.2-4.8-0.3-5.3-0.3v-1.8c1.1,0,3.7-0.6,7.8-1.8
				c4.1-1.2,6.8-1.8,8.1-1.8v49.9c0.5,1.1,2.3,1.7,5.3,1.7v1.8H156.7z"/>
			<path class="st1" d="M192.3,390.9c0.1,4.9,1.2,9.2,3.3,12.7c2.1,3.6,4.8,5.3,8.1,5.3c4.9,0,8.9-1.9,11.9-5.6l2,1
				c-1.6,2.7-3.8,4.7-6.4,5.9c-2.6,1.2-6.1,1.9-10.4,1.9c-2.2,0-4.3-0.3-6.4-1c-2.1-0.6-4.1-1.7-6.1-3.2c-2-1.5-3.6-3.7-4.8-6.7
				c-1.2-2.9-1.8-6.4-1.8-10.5c0-4.9,1.7-9.1,5.2-12.5c3.5-3.4,8-5.1,13.5-5.1c6,0,10.7,1.7,14.1,5.1c3.3,3.4,5,7.6,5,12.6H192.3z
				 M192.4,388.3h15.4c-0.3-4-1-7.2-2.1-9.3c-1-2.2-2.7-3.3-5-3.3c-2,0-3.9,1-5.5,3.1C193.6,380.9,192.7,384,192.4,388.3z"/>
			<path class="st1" d="M232.3,380.2c1.3,0,1.9,1.2,1.9,3.5c0,1-0.5,1.7-1.4,2.2c-1,0.5-2,0.8-3,0.8c-1.1,0-2.1-0.4-3-1.2
				c-0.9-0.8-1.3-1.8-1.3-3.1c0-2.9,1.4-5.2,4.3-6.8c2.9-1.7,6.6-2.5,11.2-2.5c5.4,0,9.6,1.3,12.6,4c3,2.7,4.5,6,4.5,10.1v16.9
				c0,1.8,0.3,3.2,0.9,4c0.6,0.9,1.3,1.3,2.2,1.3c0.7,0,1.4-0.2,2-0.6c0.6-0.4,0.9-0.9,0.9-1.4h1.5c0,3.1-3.1,4.6-9.4,4.6
				c-2.9,0-5.1-1-6.7-3.1c-3.4,2.1-7.4,3.2-11.8,3.2c-9.3,0-13.9-3.5-13.9-10.4c0-1.4,0.5-2.7,1.5-3.8c1-1.1,2.5-2.1,4.5-2.9
				s3.8-1.4,5.4-1.9c1.6-0.5,3.8-1,6.6-1.6c2.8-0.6,4.7-1,5.7-1.3c0-5.3-0.4-9-1.3-11.1c-0.9-2.1-2.9-3.1-6-3.1
				c-1.9,0-3.6,0.4-5.1,1.2C233.5,378,232.6,379,232.3,380.2z M248.2,406.9c-0.6-1.5-0.8-3.2-0.8-5.1v-9.6c-4.8,1.5-8,2.7-9.6,3.7
				c-2.4,1.6-3.6,3.6-3.6,6.1c0,2.6,0.6,4.5,1.7,5.6c1.1,1.1,2.4,1.7,3.8,1.7C242.2,409.2,245.1,408.4,248.2,406.9z"/>
			<path class="st1" d="M265.4,411.3v-1.8c3,0,4.8-0.6,5.3-1.7v-44.1c-3.1-0.2-4.8-0.3-5.3-0.3v-1.8c1.1,0,3.7-0.6,7.8-1.8
				c4.1-1.2,6.8-1.8,8.1-1.8v18.6c3.4-2.2,6.7-3.3,10.1-3.3c5.6,0,9.8,0.9,12.7,2.7c2.9,1.8,4.3,4.8,4.3,9v23
				c0.5,1.1,2.3,1.7,5.3,1.7v1.8h-21.3v-1.8c3,0,4.8-0.6,5.3-1.7v-20.9c0-3.9-0.6-6.7-1.7-8.3c-1.2-1.7-2.9-2.5-5.2-2.5
				c-3.4,0-6.6,1-9.6,3.1v28.7c0.5,1.1,2.3,1.7,5.3,1.7v1.8H265.4z"/>
			<path class="st1" d="M332.1,408.4c3.8,0,5.8-1.7,5.8-5.2c0-1-0.7-1.9-2-2.8c-1.4-0.9-3-1.8-4.9-2.8c-1.9-0.9-3.8-2-5.8-3.1
				c-1.9-1.2-3.6-2.7-4.9-4.7c-1.4-1.9-2-4.1-2-6.5c0-3.1,1.2-5.6,3.6-7.4c2.4-1.8,5.3-2.7,8.6-2.7c1.9,0,3.9,0.4,5.9,1.3
				c2,0.8,3.2,1.3,3.5,1.3c0.7,0,1-0.6,1-1.7h1.9l0.8,12.3h-1.9c-0.6-2.3-2-4.6-4.4-6.9c-2.3-2.2-4.6-3.4-6.7-3.4c-4,0-6,1.5-6,4.4
				c0,1,1.1,2.2,3.3,3.5c2.2,1.3,4.6,2.6,7.2,3.8c2.6,1.2,5,3,7.2,5.3c2.2,2.3,3.3,4.8,3.3,7.5c0,3.6-1.3,6.4-4,8.5
				c-2.7,2.1-6.1,3.1-10.3,3.1c-2,0-4.1-0.5-6.2-1.4c-2.1-0.9-3.2-1.4-3.5-1.4c-0.7,0-1,0.6-1,1.9h-2l-0.8-13.2h1.9
				c0.6,2.2,2.3,4.5,5.1,6.8C327.7,407.2,330.1,408.4,332.1,408.4z"/>
			<path class="st1" d="M158.3,476.2v-1.8c3.1,0,5-0.6,5.5-1.7v-42.6c-0.5-1.1-2.4-1.7-5.5-1.7v-1.8H180v1.8c-3.1,0-5,0.6-5.5,1.7
				V449h18.8v-18.9c-0.5-1.1-2.4-1.7-5.5-1.7v-1.8h21.6v1.8c-3.1,0-5,0.6-5.5,1.7v42.6c0.5,1.1,2.4,1.7,5.5,1.7v1.8h-21.6v-1.8
				c3.1,0,5-0.6,5.5-1.7v-20.8h-18.8v20.8c0.5,1.1,2.4,1.7,5.5,1.7v1.8H158.3z"/>
			<path class="st1" d="M225.7,455.7c0.1,4.9,1.2,9.2,3.3,12.7s4.8,5.3,8.1,5.3c4.9,0,8.9-1.9,11.9-5.6l2,1
				c-1.6,2.7-3.8,4.7-6.4,5.9c-2.6,1.2-6.1,1.9-10.4,1.9c-2.2,0-4.3-0.3-6.4-1c-2.1-0.6-4.1-1.7-6.1-3.2s-3.6-3.7-4.8-6.7
				c-1.2-2.9-1.8-6.4-1.8-10.5c0-4.9,1.7-9.1,5.2-12.5s8-5.1,13.5-5.1c6,0,10.7,1.7,14.1,5.1c3.3,3.4,5,7.6,5,12.6H225.7z
				 M225.8,453.2h15.4c-0.3-4-1-7.2-2.1-9.3s-2.7-3.3-5-3.3c-2,0-3.9,1-5.5,3.1C227,445.8,226.1,448.9,225.8,453.2z"/>
			<path class="st1" d="M265.7,445c1.3,0,1.9,1.2,1.9,3.5c0,1-0.5,1.7-1.4,2.2c-1,0.5-2,0.8-3,0.8c-1.1,0-2.1-0.4-3-1.2
				c-0.9-0.8-1.3-1.8-1.3-3.1c0-2.9,1.4-5.2,4.3-6.8c2.9-1.7,6.6-2.5,11.2-2.5c5.4,0,9.6,1.3,12.6,4c3,2.7,4.5,6,4.5,10.1V469
				c0,1.8,0.3,3.2,0.9,4c0.6,0.9,1.3,1.3,2.2,1.3c0.7,0,1.4-0.2,2-0.6c0.6-0.4,0.9-0.9,0.9-1.4h1.5c0,3-3.1,4.6-9.4,4.6
				c-2.9,0-5.1-1-6.7-3.1c-3.4,2.1-7.4,3.2-11.8,3.2c-9.3,0-13.9-3.5-13.9-10.4c0-1.4,0.5-2.7,1.5-3.8c1-1.1,2.5-2.1,4.5-2.9
				c2-0.8,3.8-1.4,5.4-1.9c1.6-0.5,3.8-1,6.6-1.6c2.8-0.6,4.7-1,5.7-1.3c0-5.3-0.4-9-1.3-11.1c-0.9-2.1-2.9-3.1-6-3.1
				c-1.9,0-3.6,0.4-5.1,1.2C266.9,442.8,266,443.8,265.7,445z M281.6,471.7c-0.6-1.5-0.8-3.2-0.8-5.1V457c-4.8,1.5-8,2.7-9.6,3.7
				c-2.4,1.6-3.6,3.6-3.6,6.1c0,2.6,0.6,4.5,1.7,5.6c1.1,1.1,2.4,1.7,3.8,1.7C275.6,474.1,278.4,473.3,281.6,471.7z"/>
			<path class="st1" d="M298.7,476.2v-1.8c3,0,4.8-0.6,5.3-1.7v-44.1c-3.1-0.2-4.8-0.3-5.3-0.3v-1.8c1.1,0,3.7-0.6,7.8-1.8
				c4.1-1.2,6.8-1.8,8.1-1.8v49.9c0.5,1.1,2.3,1.7,5.3,1.7v1.8H298.7z"/>
			<path class="st1" d="M323.2,476.2v-1.8c3.1,0,4.8-0.6,5.3-1.7v-28.9c-2.9-0.2-4.7-0.3-5.3-0.3v-1.8c1.1,0,3.7-0.6,7.8-1.8
				c4.1-1.2,6.8-1.8,8.1-1.8v34.6c0.5,1.1,2.3,1.7,5.3,1.7v1.8H323.2z M333.6,432.6c-1.4,0-2.7-0.5-4.1-1.5c-1.4-1-2.1-2.2-2.1-3.5
				c0-1.2,0.6-2.3,1.9-3.3c1.3-1,2.6-1.5,4-1.5c1.4,0,2.7,0.5,4.1,1.5c1.4,1,2.1,2.2,2.1,3.6c0,1.2-0.6,2.3-1.9,3.3
				C336.4,432.1,335.1,432.6,333.6,432.6z"/>
			<path class="st1" d="M347.7,476.2v-1.8c3.1,0,4.8-0.6,5.3-1.7v-28.9c-3-0.2-4.8-0.3-5.3-0.3v-1.8c1.1,0,3.7-0.6,7.8-1.8
				c4.1-1.2,6.8-1.8,8.1-1.8v3.6c2.8-2.4,5.9-3.6,9.3-3.6c5.4,0,9.6,1,12.6,3c3,2,4.5,5,4.5,9v22.6c0.5,1.1,2.3,1.7,5.3,1.7v1.8
				h-21.3v-1.8c3,0,4.8-0.6,5.3-1.7v-23.2c0-2.5-0.6-4.6-1.7-6.2c-1.2-1.6-2.9-2.4-5.3-2.4c-3.5,0-6.4,1.1-8.8,3.2v28.5
				c0.5,1.1,2.3,1.7,5.3,1.7v1.8H347.7z"/>
			<path class="st1" d="M436.6,438v35.7c0,5.6-1.7,10.3-5,13.9c-3.3,3.6-7.7,5.5-13.2,5.5c-5.2,0-9.3-0.7-12.4-2
				c-3.1-1.4-4.6-3.2-4.6-5.4c0-3.6,1.5-5.4,4.6-5.4c1.1,0,2.1,0.4,2.8,1.2c0.7,0.8,1.1,1.8,1.1,2.8c0,1.8-0.7,3-2.1,3.6
				c1.5,1.6,4.8,2.3,9.8,2.3c2.6,0,4.6-1.1,6-3.4c1.4-2.3,2.2-6.2,2.4-11.7c-2.4,1.2-5.3,1.9-8.8,1.9c-1.8,0-3.7-0.3-5.6-0.9
				c-1.9-0.6-3.9-1.6-5.8-2.9c-2-1.4-3.6-3.4-4.9-6.1c-1.2-2.7-1.9-5.8-1.9-9.4c0-6.3,1.9-11.1,5.7-14.5c3.8-3.4,8.6-5.1,14.3-5.1
				c3.6,0,6.7,0.8,9.2,2.5C432.4,438.9,435.2,438,436.6,438z M426,472.4v-1.8v-28.6c-1.8-0.8-3.9-1.2-6.5-1.2c-6.6,0-10,5.6-10,16.8
				c0,3.3,0.3,6.1,0.9,8.4c0.6,2.3,1.4,4.1,2.3,5.1c0.9,1.1,1.8,1.8,2.7,2.2c0.9,0.4,1.7,0.6,2.6,0.6
				C421.1,474.1,423.7,473.6,426,472.4z"/>
		</g>
	</g>
	<g>
		<g>
			<path class="st1" d="M380.4,367.8c-1.2-0.1-2.5,0-3.7,0.4c-3.5,1.3-9.3,5.8-5.1,21.7c5.8,21.8,16,14.9,16,14.9s4.5-3.3,0.5-12.2
				c-0.8-1.7-1.1-3.6-0.8-5.5c0.2-1.7,0.7-3.7,1.6-5.2C390.6,378.7,392.2,368.8,380.4,367.8z"/>
			<path class="st1" d="M395.3,362.3c-0.9-1.5-2.6-2.4-4.5-2c-3.6,0.8-3.6,6.2-3.5,6.4c0,0,0.2,5.7,5.8,1.3
				C396.2,365.6,396.1,363.6,395.3,362.3z"/>
			<path class="st1" d="M385,359.2c-1-0.3-2.2,0-3,1c-1.6,2,0.4,4.6,0.4,4.6c0,0,2.1,2.6,3.5-2C386.6,360.3,385.9,359.5,385,359.2z"
				/>
			<path class="st1" d="M378.4,360c-0.9-0.1-1.9,0.4-2.5,1.4c-1.1,2,1,3.9,1.1,3.9c0,0,2.2,1.9,2.7-2.3
				C379.9,360.8,379.1,360.1,378.4,360z"/>
			<path class="st1" d="M372.4,363.1c-0.7,0.2-1.3,0.9-1.4,1.8c-0.2,1.8,2,2.6,2.1,2.6c0,0,2.3,0.8,1.3-2.6
				C373.8,363.2,373,363,372.4,363.1z"/>
			<path class="st1" d="M368.2,367.6c-0.4,0.4-0.6,1.1-0.4,1.8c0.5,1.4,2.4,1.2,2.5,1.1c0,0,1.9-0.3,0-2.3
				C369.2,367.1,368.6,367.2,368.2,367.6z"/>
		</g>
		<g>
			<path class="st1" d="M409.6,381.5c1.2-0.1,2.5,0,3.7,0.4c3.5,1.3,9.3,5.8,5.1,21.7c-5.8,21.8-16,14.9-16,14.9s-4.5-3.3-0.5-12.2
				c0.8-1.7,1.1-3.6,0.8-5.5c-0.2-1.7-0.7-3.7-1.6-5.2C399.3,392.4,397.7,382.5,409.6,381.5z"/>
			<path class="st1" d="M394.6,376c0.9-1.5,2.6-2.4,4.5-2c3.6,0.8,3.6,6.2,3.5,6.4c0,0-0.2,5.7-5.8,1.3
				C393.7,379.3,393.9,377.3,394.6,376z"/>
			<path class="st1" d="M404.9,372.9c1-0.3,2.2,0,3,1c1.6,2-0.4,4.6-0.4,4.6c0,0-2.1,2.6-3.5-2C403.3,374,404.1,373.1,404.9,372.9z"
				/>
			<path class="st1" d="M411.6,373.7c0.9-0.1,1.9,0.4,2.5,1.4c1.1,2-1,3.9-1.1,3.9c0,0-2.2,1.9-2.7-2.3
				C410,374.5,410.8,373.8,411.6,373.7z"/>
			<path class="st1" d="M417.5,376.8c0.7,0.2,1.3,0.9,1.4,1.8c0.2,1.8-2,2.6-2.1,2.6c0,0-2.3,0.8-1.3-2.6
				C416.1,376.9,416.9,376.7,417.5,376.8z"/>
			<path class="st1" d="M421.7,381.3c0.4,0.4,0.6,1.1,0.4,1.8c-0.5,1.4-2.4,1.2-2.5,1.1c0,0-1.9-0.3,0-2.3
				C420.7,380.8,421.3,380.9,421.7,381.3z"/>
		</g>
	</g>
</g>
</svg>
